<?xml version="1.0" standalone="no"?>
<!DOCTYPE svg PUBLIC "-//W3C//DTD SVG 20010904//EN"
 "http://www.w3.org/TR/2001/REC-SVG-20010904/DTD/svg10.dtd">
<svg version="1.0" xmlns="http://www.w3.org/2000/svg"
 width="310.000000pt" height="203.000000pt" viewBox="0 0 310.000000 203.000000"
 preserveAspectRatio="xMidYMid meet">

<g transform="translate(0.000000,203.000000) scale(0.100000,-0.100000)"
fill="#000000" stroke="none">

<path d="M2326 1634 c-14 -13 -16 -57 -16 -323 0 -170 -5 -333 -10 -362 -31
-167 -161 -297 -330 -329 -31 -6 -279 -10 -615 -10 l-562 0 -44 -23 c-64 -34
-102 -93 -107 -166 -7 -100 30 -171 112 -213 79 -41 194 -21 252 44 43 47 56
87 52 160 l-4 68 333 0 333 0 -7 -60 c-5 -51 -2 -66 21 -113 78 -160 301 -164
380 -6 30 61 33 109 10 175 -8 25 -14 47 -12 48 2 2 27 16 55 31 70 37 163
132 201 203 62 117 65 139 70 470 l4 302 202 0 c184 0 204 2 219 18 21 23 22
66 1 86 -13 14 -52 16 -269 16 -217 0 -256 -2 -269 -16z m-1419 -1176 c30 -34
34 -55 19 -92 -29 -69 -123 -69 -152 0 -24 57 15 114 76 114 25 0 43 -7 57
-22z m1078 -3 c52 -51 14 -139 -60 -139 -29 0 -43 7 -61 28 -49 56 -13 136 61
136 25 0 44 -8 60 -25z"/>
<path d="M262 1500 c-35 -15 -49 -56 -31 -88 13 -25 21 -27 89 -32 l75 -5 145
-288 c80 -159 152 -292 160 -298 8 -5 57 -9 108 -9 85 0 95 2 117 25 14 13 25
30 25 37 1 7 7 1 16 -14 8 -15 23 -32 34 -38 28 -15 907 -14 968 2 65 16 144
95 160 160 8 29 12 133 12 276 0 211 -2 232 -19 253 l-19 24 -690 3 c-686 2
-689 2 -715 -19 -16 -12 -27 -30 -27 -45 0 -13 23 -69 50 -124 28 -55 50 -102
50 -105 0 -3 -33 -5 -73 -5 l-73 0 -64 131 c-36 72 -73 138 -84 147 -21 20
-175 28 -214 12z m1748 -205 l0 -85 -545 0 -545 0 -40 80 c-22 44 -40 82 -40
85 0 3 263 5 585 5 l585 0 0 -85z m-1125 -305 c46 -92 54 -113 33 -92 -7 7
-40 12 -78 12 l-66 0 -42 85 -42 85 75 0 75 0 45 -90z m1125 50 c0 -23 -7 -54
-15 -70 -31 -60 -33 -60 -499 -60 l-426 0 -40 80 c-22 44 -40 82 -40 85 0 3
230 5 510 5 l510 0 0 -40z"/>
</g>
</svg>
